<svg xmlns="http://www.w3.org/2000/svg" viewBox="0 0 49.78 49.68"><path d="M49.78 24.84A24.15 24.15 0 0 1 48 34.18a24.76 24.76 0 0 1-5 7.71 25.62 25.62 0 0 1-7.45 5.39 24.08 24.08 0 0 1-9.12 2.35h-1.54a24.09 24.09 0 0 1-9.68-2A25.1 25.1 0 0 1 2 34.49a23.92 23.92 0 0 1-2-9.65 23.92 23.92 0 0 1 2-9.65A25.1 25.1 0 0 1 15.21 2a24.09 24.09 0 0 1 9.68-2h1.52a24.08 24.08 0 0 1 9.1 2.4A25.62 25.62 0 0 1 43 7.79a24.76 24.76 0 0 1 5 7.71 24.15 24.15 0 0 1 1.78 9.34zM4.12 18.29a23.07 23.07 0 0 0-.75 3.2 20.93 20.93 0 0 0-.27 3.35 22.2 22.2 0 0 0 .36 4.05 19.36 19.36 0 0 0 1.09 3.76L7 32.19q1.7-.32 4.41-.61-.3-1.58-.41-3.3t-.15-3.44q0-1.36.07-2.72t.27-2.62q-3.19-.34-4.91-.7t-2.16-.51zM17.47 4.41a20.85 20.85 0 0 0-3.83 1.82 22 22 0 0 0-3.35 2.5 23.31 23.31 0 0 0-2.84 3.08 20.78 20.78 0 0 0-2.21 3.57 22.39 22.39 0 0 0 2.23.49q1.6.29 4.27.58a30 30 0 0 1 2.33-6.79 24.4 24.4 0 0 1 3.4-5.25zM5.92 35.51a21.82 21.82 0 0 0 2.21 3.18 22.49 22.49 0 0 0 2.69 2.72 22.82 22.82 0 0 0 3.13 2.23 18.75 18.75 0 0 0 3.52 1.63 21.48 21.48 0 0 1-3.13-4.66 30.35 30.35 0 0 1-2.26-6q-2.28.22-3.78.49zm8-10.67q0 1.7.15 3.3t.39 3.15q1.89-.15 4.1-.24t4.78-.15V20.13q-2.67 0-4.92-.1t-4.15-.24q-.2 1.21-.27 2.48t-.12 2.57zm9.37-21.49A7.28 7.28 0 0 0 20.57 5a14.06 14.06 0 0 0-2.4 2.91 22.79 22.79 0 0 0-2 4 34.41 34.41 0 0 0-1.46 4.83q1.8.15 3.93.24t4.61.15V3.35zm0 30.66q-2.38 0-4.41.12t-3.78.22a27.91 27.91 0 0 0 1.46 4.34 21.11 21.11 0 0 0 1.94 3.57 13.43 13.43 0 0 0 2.28 2.6 7.54 7.54 0 0 0 2.52 1.48V34zm3.1-30.71v13.78q2.52 0 4.63-.15t3.91-.24a36 36 0 0 0-1.43-4.88 21.45 21.45 0 0 0-2-4 13.8 13.8 0 0 0-2.39-2.91 7.42 7.42 0 0 0-2.72-1.6zm0 27.61q2.57 0 4.78.15t4.05.24q.24-1.55.39-3.15t.15-3.3q0-1.31-.1-2.57t-.24-2.52q-1.84.19-4.1.29t-4.92.1V30.9zm0 15.48a7.1 7.1 0 0 0 2.55-1.43 13 13 0 0 0 2.3-2.6 19.69 19.69 0 0 0 1.92-3.59 30.06 30.06 0 0 0 1.43-4.41q-1.7-.15-3.76-.22T26.39 34v12.38zm18-31.15a21.41 21.41 0 0 0-4.51-6.11 22 22 0 0 0-6.31-4.23 24.4 24.4 0 0 1 2.67 5.1 36.1 36.1 0 0 1 1.84 6.43 42.44 42.44 0 0 0 4.46-.7zM33.57 44.78A22.08 22.08 0 0 0 39.39 41a21.29 21.29 0 0 0 4.37-5.39q-.76-.15-2.18-.41t-3.78-.56a32.33 32.33 0 0 1-1.8 5.63 24.64 24.64 0 0 1-2.43 4.51zm11.6-11.93A21.63 21.63 0 0 0 46.28 29a21.87 21.87 0 0 0 .39-4.15 21.38 21.38 0 0 0-.44-4.34 22.57 22.57 0 0 0-1.21-4l.58 1.6-1.82.49a44 44 0 0 1-5.26.87q.15 1.31.24 2.64t.1 2.74q0 1.75-.15 3.44t-.34 3.3q2.81.34 4.46.7t2.34.56z"/></svg>